<?xml version="1.0" encoding="UTF-8"?><svg id="Layer_2" xmlns="http://www.w3.org/2000/svg" viewBox="0 0 235.46 235.46"><defs><style>.cls-1{fill:none;stroke:#fff;stroke-miterlimit:10;stroke-width:7px;}.cls-2{fill:#fff;stroke-width:0px;}</style></defs><g id="Layer_1-2"><path class="cls-1" d="m3.5,63.72v108.02c0,33.12,27.68,60.22,61.5,60.22h105.46c33.83,0,61.5-27.1,61.5-60.22V63.72c0-33.12-27.68-60.22-61.5-60.22h-105.46c-33.83,0-61.5,27.1-61.5,60.22Z"/><path class="cls-2" d="m149.52,50.49h-63.58c-19.49,0-35.45,16.29-35.45,36.2v62.07c0,19.91,15.95,36.2,35.45,36.2h63.58c19.5,0,35.45-16.29,35.45-36.2v-62.07c0-19.91-15.95-36.2-35.45-36.2Zm23.41,97.38c0,13.78-11.04,25.06-24.54,25.06h-61.32c-13.5,0-24.54-11.28-24.54-25.06v-60.28c0-13.78,11.04-25.06,24.54-25.06h61.32c13.5,0,24.54,11.28,24.54,25.06v60.28Z"/><path class="cls-2" d="m117.72,83.21c-18.67,0-33.81,15.46-33.81,34.53s15.14,34.53,33.81,34.53,33.81-15.46,33.81-34.53-15.14-34.53-33.81-34.53Zm0,56.81c-12.05,0-21.81-9.97-21.81-22.28,0-12.3,9.77-22.28,21.81-22.28,12.05,0,21.81,9.97,21.81,22.28s-9.77,22.28-21.81,22.28Z"/><ellipse class="cls-2" cx="153.35" cy="81.35" rx="7.63" ry="7.8"/></g></svg>