<?xml version="1.0" encoding="UTF-8"?><svg id="Layer_2" xmlns="http://www.w3.org/2000/svg" viewBox="0 0 235.46 235.46"><defs><style>.cls-1{fill:none;stroke:#fff;stroke-miterlimit:10;stroke-width:7px;}.cls-2{fill:#fff;stroke-width:0px;}</style></defs><g id="Layer_1-2"><path class="cls-1" d="m171.74,3.5H63.72C30.6,3.5,3.5,31.18,3.5,65v105.46c0,33.83,27.1,61.5,60.22,61.5h108.02c33.12,0,60.22-27.68,60.22-61.5v-105.46c0-33.83-27.1-61.5-60.22-61.5Z"/><path id="Twitter" class="cls-2" d="m178.4,75.59c-4.67,2.83-9.83,4.89-15.34,6-4.39-4.81-10.67-7.81-17.62-7.81-13.32,0-24.13,11.08-24.13,24.76,0,1.94.21,3.82.62,5.64-20.07-1.03-37.85-10.88-49.77-25.87-2.08,3.67-3.27,7.93-3.27,12.46,0,8.58,4.26,16.16,10.74,20.6-3.95-.12-7.68-1.25-10.94-3.09v.3c0,12,8.32,22.01,19.37,24.27-2.02.58-4.16.87-6.36.87-1.55,0-3.07-.15-4.54-.44,3.07,9.83,11.98,16.99,22.55,17.18-8.26,6.64-18.68,10.6-29.98,10.6-1.95,0-3.87-.11-5.76-.34,10.69,7.01,23.38,11.11,37.01,11.11,44.41,0,68.69-37.72,68.69-70.43,0-1.08-.02-2.15-.06-3.21,4.72-3.49,8.81-7.85,12.04-12.81-4.32,1.97-8.98,3.3-13.86,3.9,4.99-3.06,8.81-7.91,10.62-13.69Z"/></g></svg>